<mxfile host="app.diagrams.net" modified="2022-09-19T03:18:00.292Z" agent="5.0 (Windows NT 10.0; Win64; x64) AppleWebKit/537.36 (KHTML, like Gecko) Chrome/104.0.0.0 Safari/537.36" etag="q2Rkg8kWIWYvGoHdAyZ8" version="20.3.2" type="github">
  <diagram id="5eT6TWs0ibtb3CZcphek" name="第 1 页">
    <mxGraphModel dx="1278" dy="547" grid="1" gridSize="10" guides="1" tooltips="1" connect="1" arrows="1" fold="1" page="1" pageScale="1" pageWidth="827" pageHeight="1169" math="0" shadow="0">
      <root>
        <mxCell id="0" />
        <mxCell id="1" parent="0" />
        <mxCell id="YFDYIx_Jg8ZJ-vrD2z55-1" value="" style="swimlane;startSize=0;" parent="1" vertex="1">
          <mxGeometry x="230" y="170" width="200" height="200" as="geometry" />
        </mxCell>
        <mxCell id="YFDYIx_Jg8ZJ-vrD2z55-2" value="" style="shape=document;whiteSpace=wrap;html=1;boundedLbl=1;" parent="1" vertex="1">
          <mxGeometry x="414" y="110" width="120" height="80" as="geometry" />
        </mxCell>
        <mxCell id="YFDYIx_Jg8ZJ-vrD2z55-3" value="" style="shape=process;whiteSpace=wrap;html=1;backgroundOutline=1;" parent="1" vertex="1">
          <mxGeometry x="80" y="80" width="120" height="60" as="geometry" />
        </mxCell>
        <mxCell id="Q-WeENOxoDFWYDe4Qqks-1" value="" style="ellipse;whiteSpace=wrap;html=1;" vertex="1" parent="1">
          <mxGeometry x="300" y="80" width="120" height="80" as="geometry" />
        </mxCell>
      </root>
    </mxGraphModel>
  </diagram>
</mxfile>
